<?xml version="1.0" standalone="no"?>
<!DOCTYPE svg PUBLIC "-//W3C//DTD SVG 20010904//EN"
 "http://www.w3.org/TR/2001/REC-SVG-20010904/DTD/svg10.dtd">
<svg version="1.0" xmlns="http://www.w3.org/2000/svg"
 width="1536.000000pt" height="1536.000000pt" viewBox="0 0 1536.000000 1536.000000"
 preserveAspectRatio="xMidYMid meet">
<metadata>
Created by potrace 1.11, written by Peter Selinger 2001-2013
</metadata>
<g transform="translate(0.000000,1536.000000) scale(0.100000,-0.100000)"
fill="#000000" stroke="none">
<path d="M2969 11238 c0 -2 -55 -325 -123 -718 l-122 -715 265 -6 c281 -7 320
-12 371 -56 49 -41 64 -78 63 -163 -1 -50 -149 -952 -447 -2725 -246 -1457
-449 -2662 -452 -2677 l-6 -28 1075 0 1076 0 10 53 c6 28 161 925 346 1992
370 2139 362 2096 410 2280 98 376 228 631 410 804 151 142 329 211 542 211
287 -1 447 -115 498 -358 19 -86 19 -286 1 -422 -13 -94 -749 -4472 -761
-4528 l-5 -22 1077 2 1077 3 346 2070 c191 1139 352 2097 359 2130 73 363 217
685 395 882 101 112 262 207 403 239 108 24 326 16 405 -15 249 -97 317 -317
252 -819 -8 -64 -116 -751 -240 -1527 -123 -775 -231 -1460 -239 -1520 -57
-433 -6 -787 147 -1022 148 -228 391 -366 758 -429 81 -14 213 -17 922 -21
l827 -4 6 23 c3 13 55 313 115 668 61 355 113 657 116 672 l5 27 -303 3 c-269
3 -308 5 -346 22 -62 27 -85 76 -80 170 3 39 121 811 263 1716 142 905 266
1706 276 1780 25 179 36 585 20 741 -78 751 -456 1153 -1191 1266 -144 22
-533 25 -690 5 -668 -84 -1170 -382 -1592 -945 -48 -65 -90 -112 -92 -105 -2
7 -16 58 -32 113 -33 119 -124 304 -193 396 -222 293 -565 479 -1001 540 -121
17 -475 17 -600 0 -425 -58 -804 -210 -1125 -450 -171 -128 -356 -313 -478
-479 l-62 -83 -6 108 c-8 134 -28 212 -84 330 -92 189 -237 329 -450 433 -135
66 -244 100 -420 132 -115 21 -153 22 -907 25 -434 3 -788 3 -789 1z"/>
</g>
</svg>
